<?xml version="1.0" standalone="no"?>
<!DOCTYPE svg PUBLIC "-//W3C//DTD SVG 20010904//EN"
 "http://www.w3.org/TR/2001/REC-SVG-20010904/DTD/svg10.dtd">
<svg version="1.0" xmlns="http://www.w3.org/2000/svg"
 width="88.000000pt" height="88.000000pt" viewBox="0 0 88.000000 88.000000"
 preserveAspectRatio="xMidYMid meet">
<metadata>
Created by potrace 1.10, written by Peter Selinger 2001-2011
</metadata>
<g transform="translate(0.000000,88.000000) scale(0.100000,-0.100000)"
fill="#000000" stroke="none">
<path d="M255 790 c-18 -20 -18 -21 3 -43 l22 -21 22 21 c21 22 21 23 3 43
-10 11 -21 20 -25 20 -4 0 -15 -9 -25 -20z"/>
<path d="M360 666 c0 -76 -2 -86 -22 -100 -34 -24 -113 -21 -139 5 -17 17 -20
30 -16 68 2 25 8 53 11 62 6 12 -1 19 -25 28 -18 6 -34 10 -35 8 -2 -2 -10
-28 -18 -59 -16 -62 -8 -117 21 -150 45 -50 186 -62 242 -20 41 30 51 60 51
155 l0 87 -35 0 -35 0 0 -84z"/>
<path d="M662 477 l-22 -24 20 -18 c20 -18 21 -18 43 3 l21 22 -20 20 -20 20
-22 -23z"/>
<path d="M755 480 c-18 -20 -18 -21 3 -43 l22 -21 20 20 20 20 -23 22 -24 22
-18 -20z"/>
<path d="M120 342 c0 -98 4 -133 15 -149 20 -28 76 -44 115 -33 21 6 41 4 65
-6 63 -26 108 -17 130 27 40 76 -8 169 -86 169 -36 0 -78 -33 -99 -76 -22 -48
-32 -57 -54 -48 -12 5 -16 27 -18 111 l-3 105 -32 13 -33 14 0 -127z m266 -87
c11 -42 0 -56 -36 -44 -33 12 -36 20 -18 49 18 28 46 25 54 -5z"/>
<path d="M543 378 c-27 -13 -45 -55 -45 -105 0 -47 33 -78 93 -88 37 -6 40 -9
26 -23 -9 -8 -33 -18 -54 -21 -34 -6 -38 -10 -41 -39 -3 -31 -2 -32 38 -32 59
0 116 32 131 74 11 30 17 35 58 41 62 9 88 28 100 72 13 46 14 113 2 113 -4 0
-22 -5 -40 -11 -28 -10 -31 -15 -31 -55 0 -38 -3 -44 -25 -50 -39 -10 -55 1
-55 40 0 51 -46 96 -97 95 -21 0 -48 -5 -60 -11z m85 -95 c4 -36 -11 -43 -49
-23 -34 19 -14 64 26 58 15 -2 21 -12 23 -35z"/>
</g>
</svg>
